# xmcd
#
# Track frame offsets:
#	150
#	16892
#	33377
#	53288
#	69158
#	88605
#	107376
#	123320
#	138023
#	157327
#
# Disc length: 2322 seconds
#
# Revision: 0
# Processed by: cddbd v1.5.2PL0 Copyright (c) Steve Scherf et al.
# Submitted via: dBpowerAMP V4.0
#
DISCID=6f09100a
DTITLE=Restless Heart - Super Hits
DYEAR=2007
DGENRE=Country
TTITLE0=When She Cries
TTITLE1=When Somebody Loves You
TTITLE2=Fast Movin' Train
TTITLE3=That Rock Won't Roll
TTITLE4=I'll Still Be Loving You
TTITLE5=Meet Me On The Other Side
TTITLE6=Blame It On Love
TTITLE7=In This Little Town
TTITLE8=Dancy's Dream
TTITLE9=Wheels
EXTD=
EXTT0=
EXTT1=
EXTT2=
EXTT3=
EXTT4=
EXTT5=
EXTT6=
EXTT7=
EXTT8=
EXTT9=
PLAYORDER=
